<svg width="761" height="132" viewBox="0 0 761 132" fill="none" xmlns="http://www.w3.org/2000/svg">
<g clip-path="url(#clip0_196_1317)">
<path d="M0 7.24716V14.4943H19.9597H39.9194V70.6601V126.826H47.9032H55.8871V70.6601V14.4943H75.8468H95.8064V7.24716V-3.54797e-05H47.9032H0V7.24716Z" fill="black"/>
<path d="M385.935 23.3361L385.863 46.7445L384.048 44.5703C383.032 43.3383 380.927 40.8743 379.331 38.99C375.048 33.8445 368.879 31.0906 360.605 30.5833C347.831 29.8586 338.831 33.1923 330.339 41.599C326.564 45.3675 324.46 48.1939 322.572 52.1799C318.072 61.6012 317.347 65.4423 317.347 79.7192C317.347 90.8074 317.564 93.1265 319.016 98.1996C321.339 106.099 324.532 111.824 329.831 117.477C337.306 125.377 346.089 129 357.774 129C368.734 129 375.629 125.666 381.871 117.405C383.831 114.796 385.645 112.549 386.008 112.477C386.371 112.332 386.661 115.52 386.661 119.506V126.826H393.919H401.177V63.413V0.00012365H393.556H385.935V23.3361ZM370.185 46.3821C374.758 48.5563 379.621 53.4119 381.871 58.2675C387.46 70.0805 387.314 90.2277 381.581 101.461C379.331 105.882 374.54 110.737 370.331 112.911C367.137 114.651 365.903 114.868 359.443 114.868C352.984 114.868 351.75 114.651 348.048 112.839C341.081 109.433 335.637 101.678 333.314 91.8945C332.081 86.749 331.863 74.5012 332.879 69.1383C335.129 57.2529 341.516 48.7737 350.516 45.5125C355.814 43.6282 365.25 44.063 370.185 46.3821Z" fill="black"/>
<path d="M414.483 63.4129V126.826H422.104H429.725V63.4129V-3.54797e-05H422.104H414.483V63.4129Z" fill="black"/>
<path d="M112.266 31.4528C105.879 33.482 101.016 37.1781 98.1127 42.3236L95.9353 46.0196V38.9174V31.8876H88.3143H80.6934V79.3567V126.826H88.3143H95.8627L96.0805 94.4309C96.2982 62.1084 96.2982 61.9634 98.0401 58.1949C99.9998 53.7741 104.79 49.0634 109.58 46.8893C112.484 45.5123 114.298 45.2949 121.193 45.3674H129.322V37.9028V30.4382L122.282 30.5106C118.363 30.5106 113.863 30.9455 112.266 31.4528Z" fill="black"/>
<path d="M188.98 33.4568C176.352 29.3458 163.907 31.4495 152.312 39.4836C144.985 44.6259 140.764 49.4693 135.22 59.072C126.922 73.4446 124.907 84.9177 128.341 97.6955C131.466 109.123 137.709 116.744 149.553 123.666C164.827 132.485 180.405 132.357 192.391 123.21L194.638 121.495L189.304 116.072C185.934 112.62 183.736 110.765 183.357 111.132C181.298 112.956 175.278 115.254 172.01 115.543C166.032 116.025 160.477 114.325 154.184 110.273C143.143 102.978 139.018 91.9768 142.55 79.0367C143.243 76.6752 144.289 73.8479 144.941 72.7182L146.137 70.647L176.119 87.9575L206.039 105.232L210.093 97.1951C218.743 80.1805 219.925 67.3902 213.924 55.1389C210.335 47.7108 206.275 43.2748 198.312 38.3423C194.738 36.1119 190.544 33.9413 188.98 33.4568ZM198.378 56.3725C203.4 63.2054 204.26 73.9108 200.494 82.0298L198.733 85.9505L175.665 72.632L152.659 59.3497L153.493 57.9062C154.978 55.3329 160.188 50.8093 163.876 48.9217C169.918 45.7152 176.275 44.8664 183.244 46.2957C187.703 47.2807 195.558 52.4015 198.378 56.3725Z" fill="black"/>
<path d="M263.387 31.5252C256.71 33.4095 251.411 37.4679 247.129 43.8455L245.242 46.7443V39.2797V31.8876H237.621H230V79.3567V126.826H237.621H245.242V97.2573C245.242 64.9348 245.75 60.2241 249.306 54.7887C253.661 48.2663 259.323 45.005 267.379 44.4252C274.855 43.8455 280.008 45.5123 284.363 49.8606C290.605 56.0932 290.532 55.7309 290.823 93.6337L291.04 126.826H298.661H306.282L306.065 91.4595C305.847 57.8325 305.702 55.9483 304.25 51.6724C301.129 42.2511 295.105 35.7286 286.831 32.6123C281.242 30.5106 269.121 29.9309 263.387 31.5252Z" fill="black"/>
<path d="M482.936 132.092C493.375 132.113 502.606 128.509 510.349 121.205C518.681 113.384 522.989 105.16 526.381 90.5379C528.183 82.6925 528.512 79.7796 528.189 74.8162C527.374 60.1923 521.054 48.445 509.929 40.8874C506.238 38.3978 504.331 37.6618 496.18 35.5527C487.837 33.3173 486.098 33.0765 481.69 33.5457C470.721 34.6584 461.985 39.2201 454.629 47.603C447.849 55.2399 445.882 59.2146 442.525 71.745C439.167 84.2755 438.902 88.6311 440.899 98.8448C444.735 118.18 462.166 131.929 482.936 132.092ZM464.258 111.781C455.84 104.499 451.162 89.7402 455.082 75.1097C458.284 63.4381 465.389 55.9631 473.214 51.1571C480.042 46.9846 484.152 46.5102 493.336 48.9711C499.646 50.6617 501.132 51.285 503.612 53.5253C512.306 61.1817 515.044 74.5201 510.955 89.7806C507.766 101.681 502.889 108.477 495.045 113.353C488.09 117.717 482.46 119.285 473.632 116.619C468.832 115.183 467.052 114.256 464.258 111.781Z" fill="black"/>
<path d="M579.936 132.092C590.375 132.113 599.606 128.509 607.349 121.205C615.681 113.384 619.989 105.16 623.381 90.5379C625.183 82.6925 625.512 79.7796 625.189 74.8162C624.374 60.1923 618.054 48.445 606.929 40.8874C603.238 38.3978 601.331 37.6618 593.18 35.5527C584.837 33.3173 583.098 33.0765 578.69 33.5457C567.721 34.6584 558.985 39.2201 551.629 47.603C544.849 55.2399 542.882 59.2146 539.525 71.745C536.167 84.2755 535.902 88.6311 537.899 98.8448C541.735 118.18 559.166 131.929 579.936 132.092ZM561.258 111.781C552.84 104.499 548.162 89.7402 552.082 75.1097C555.284 63.4381 562.389 55.9631 570.214 51.1571C577.042 46.9846 581.152 46.5102 590.336 48.9711C596.646 50.6617 598.132 51.285 600.612 53.5253C609.306 61.1817 612.044 74.5201 607.955 89.7806C604.766 101.681 599.889 108.477 592.045 113.353C585.09 117.717 579.46 119.285 570.632 116.619C565.832 115.183 564.052 114.256 561.258 111.781Z" fill="black"/>
<path d="M668.169 31.7972C661.637 33.3192 654.379 38.827 652.056 44.045C651.331 45.6394 650.46 46.9439 650.097 46.9439C649.806 46.9439 649.516 43.6826 649.516 39.6967V32.4495H642.258H635V79.9186V127.388H642.621H650.169L650.387 94.5579L650.605 61.8006L652.492 57.8147C656.048 50.3501 662.435 45.6394 669.984 44.9871C675.863 44.4074 680.073 45.7843 684.355 49.6253C690.161 54.8433 690.161 54.7708 690.161 93.8332V127.388H697.782H705.403V95.5001C705.403 75.3529 705.694 62.3079 706.202 59.9888C707.29 54.7708 710.847 50.0602 715.565 47.3787C719.194 45.3495 720.137 45.1321 726.089 45.1321C731.968 45.1321 732.984 45.3495 736.54 47.3062C740.968 49.7703 743.435 53.0315 744.524 57.8147C744.96 59.7714 745.323 74.2658 745.323 94.1956V127.388H752.944H760.565V93.4708C760.565 73.4686 760.274 57.6697 759.766 54.9158C757.371 39.9141 746.556 31.0001 730.806 31.0001C719.556 31.0001 708.96 36.2905 703.879 44.5523L702.282 47.0888L700.323 43.9001C696.984 38.6096 691.395 34.1163 686.024 32.4495C681.016 30.9276 673.177 30.6377 668.169 31.7972Z" fill="black"/>
</g>
<defs>
<clipPath id="clip0_196_1317">
<rect width="761" height="132" fill="none"/>
</clipPath>
</defs>
</svg>
