<svg width="761" height="178" viewBox="0 0 761 178" fill="none" xmlns="http://www.w3.org/2000/svg">
<g clip-path="url(#clip0_196_1317)">
<path d="M0 7.24716V14.4943H19.9597H39.9194V70.6601V126.826H47.9032H55.8871V70.6601V14.4943H75.8468H95.8064V7.24716V-3.54797e-05H47.9032H0V7.24716Z" fill="black"/>
<path d="M385.935 23.3361L385.863 46.7445L384.048 44.5703C383.032 43.3383 380.927 40.8743 379.331 38.99C375.048 33.8445 368.879 31.0906 360.605 30.5833C347.831 29.8586 338.831 33.1923 330.339 41.599C326.564 45.3675 324.46 48.1939 322.572 52.1799C318.072 61.6012 317.347 65.4423 317.347 79.7192C317.347 90.8074 317.564 93.1265 319.016 98.1996C321.339 106.099 324.532 111.824 329.831 117.477C337.306 125.377 346.089 129 357.774 129C368.734 129 375.629 125.666 381.871 117.405C383.831 114.796 385.645 112.549 386.008 112.477C386.371 112.332 386.661 115.52 386.661 119.506V126.826H393.919H401.177V63.413V0.00012365H393.556H385.935V23.3361ZM370.185 46.3821C374.758 48.5563 379.621 53.4119 381.871 58.2675C387.46 70.0805 387.314 90.2277 381.581 101.461C379.331 105.882 374.54 110.737 370.331 112.911C367.137 114.651 365.903 114.868 359.443 114.868C352.984 114.868 351.75 114.651 348.048 112.839C341.081 109.433 335.637 101.678 333.314 91.8945C332.081 86.749 331.863 74.5012 332.879 69.1383C335.129 57.2529 341.516 48.7737 350.516 45.5125C355.814 43.6282 365.25 44.063 370.185 46.3821Z" fill="black"/>
<path d="M414.483 63.4129V126.826H422.104H429.725V63.4129V-3.54797e-05H422.104H414.483V63.4129Z" fill="black"/>
<path d="M112.266 31.4528C105.879 33.482 101.016 37.1781 98.1127 42.3236L95.9353 46.0196V38.9174V31.8876H88.3143H80.6934V79.3567V126.826H88.3143H95.8627L96.0805 94.4309C96.2982 62.1084 96.2982 61.9634 98.0401 58.1949C99.9998 53.7741 104.79 49.0634 109.58 46.8893C112.484 45.5123 114.298 45.2949 121.193 45.3674H129.322V37.9028V30.4382L122.282 30.5106C118.363 30.5106 113.863 30.9455 112.266 31.4528Z" fill="black"/>
<path d="M188.98 33.4568C176.352 29.3458 163.907 31.4495 152.312 39.4836C144.985 44.6259 140.764 49.4693 135.22 59.072C126.922 73.4446 124.907 84.9177 128.341 97.6955C131.466 109.123 137.709 116.744 149.553 123.666C164.827 132.485 180.405 132.357 192.391 123.21L194.638 121.495L189.304 116.072C185.934 112.62 183.736 110.765 183.357 111.132C181.298 112.956 175.278 115.254 172.01 115.543C166.032 116.025 160.477 114.325 154.184 110.273C143.143 102.978 139.018 91.9768 142.55 79.0367C143.243 76.6752 144.289 73.8479 144.941 72.7182L146.137 70.647L176.119 87.9575L206.039 105.232L210.093 97.1951C218.743 80.1805 219.925 67.3902 213.924 55.1389C210.335 47.7108 206.275 43.2748 198.312 38.3423C194.738 36.1119 190.544 33.9413 188.98 33.4568ZM198.378 56.3725C203.4 63.2054 204.26 73.9108 200.494 82.0298L198.733 85.9505L175.665 72.632L152.659 59.3497L153.493 57.9062C154.978 55.3329 160.188 50.8093 163.876 48.9217C169.918 45.7152 176.275 44.8664 183.244 46.2957C187.703 47.2807 195.558 52.4015 198.378 56.3725Z" fill="black"/>
<path d="M263.387 31.5252C256.71 33.4095 251.411 37.4679 247.129 43.8455L245.242 46.7443V39.2797V31.8876H237.621H230V79.3567V126.826H237.621H245.242V97.2573C245.242 64.9348 245.75 60.2241 249.306 54.7887C253.661 48.2663 259.323 45.005 267.379 44.4252C274.855 43.8455 280.008 45.5123 284.363 49.8606C290.605 56.0932 290.532 55.7309 290.823 93.6337L291.04 126.826H298.661H306.282L306.065 91.4595C305.847 57.8325 305.702 55.9483 304.25 51.6724C301.129 42.2511 295.105 35.7286 286.831 32.6123C281.242 30.5106 269.121 29.9309 263.387 31.5252Z" fill="black"/>
<path d="M482.936 132.092C493.375 132.113 502.606 128.509 510.349 121.205C518.681 113.384 522.989 105.16 526.381 90.5379C528.183 82.6925 528.512 79.7796 528.189 74.8162C527.374 60.1923 521.054 48.445 509.929 40.8874C506.238 38.3978 504.331 37.6618 496.18 35.5527C487.837 33.3173 486.098 33.0765 481.69 33.5457C470.721 34.6584 461.985 39.2201 454.629 47.603C447.849 55.2399 445.882 59.2146 442.525 71.745C439.167 84.2755 438.902 88.6311 440.899 98.8448C444.735 118.18 462.166 131.929 482.936 132.092ZM464.258 111.781C455.84 104.499 451.162 89.7402 455.082 75.1097C458.284 63.4381 465.389 55.9631 473.214 51.1571C480.042 46.9846 484.152 46.5102 493.336 48.9711C499.646 50.6617 501.132 51.285 503.612 53.5253C512.306 61.1817 515.044 74.5201 510.955 89.7806C507.766 101.681 502.889 108.477 495.045 113.353C488.09 117.717 482.46 119.285 473.632 116.619C468.832 115.183 467.052 114.256 464.258 111.781Z" fill="black"/>
<path d="M579.936 132.092C590.375 132.113 599.606 128.509 607.349 121.205C615.681 113.384 619.989 105.16 623.381 90.5379C625.183 82.6925 625.512 79.7796 625.189 74.8162C624.374 60.1923 618.054 48.445 606.929 40.8874C603.238 38.3978 601.331 37.6618 593.18 35.5527C584.837 33.3173 583.098 33.0765 578.69 33.5457C567.721 34.6584 558.985 39.2201 551.629 47.603C544.849 55.2399 542.882 59.2146 539.525 71.745C536.167 84.2755 535.902 88.6311 537.899 98.8448C541.735 118.18 559.166 131.929 579.936 132.092ZM561.258 111.781C552.84 104.499 548.162 89.7402 552.082 75.1097C555.284 63.4381 562.389 55.9631 570.214 51.1571C577.042 46.9846 581.152 46.5102 590.336 48.9711C596.646 50.6617 598.132 51.285 600.612 53.5253C609.306 61.1817 612.044 74.5201 607.955 89.7806C604.766 101.681 599.889 108.477 592.045 113.353C585.09 117.717 579.46 119.285 570.632 116.619C565.832 115.183 564.052 114.256 561.258 111.781Z" fill="black"/>
<path d="M668.169 31.7972C661.637 33.3192 654.379 38.827 652.056 44.045C651.331 45.6394 650.46 46.9439 650.097 46.9439C649.806 46.9439 649.516 43.6826 649.516 39.6967V32.4495H642.258H635V79.9186V127.388H642.621H650.169L650.387 94.5579L650.605 61.8006L652.492 57.8147C656.048 50.3501 662.435 45.6394 669.984 44.9871C675.863 44.4074 680.073 45.7843 684.355 49.6253C690.161 54.8433 690.161 54.7708 690.161 93.8332V127.388H697.782H705.403V95.5001C705.403 75.3529 705.694 62.3079 706.202 59.9888C707.29 54.7708 710.847 50.0602 715.565 47.3787C719.194 45.3495 720.137 45.1321 726.089 45.1321C731.968 45.1321 732.984 45.3495 736.54 47.3062C740.968 49.7703 743.435 53.0315 744.524 57.8147C744.96 59.7714 745.323 74.2658 745.323 94.1956V127.388H752.944H760.565V93.4708C760.565 73.4686 760.274 57.6697 759.766 54.9158C757.371 39.9141 746.556 31.0001 730.806 31.0001C719.556 31.0001 708.96 36.2905 703.879 44.5523L702.282 47.0888L700.323 43.9001C696.984 38.6096 691.395 34.1163 686.024 32.4495C681.016 30.9276 673.177 30.6377 668.169 31.7972Z" fill="black"/>
<path d="M411.952 178H408.074L419.29 147.455H423.108L434.324 178H430.446L421.318 152.287H421.08L411.952 178ZM413.384 166.068H429.014V169.349H413.384V166.068ZM447.255 178.477C445.346 178.477 443.661 177.995 442.199 177.031C440.737 176.056 439.594 174.684 438.768 172.914C437.943 171.134 437.531 169.031 437.531 166.605C437.531 164.199 437.943 162.111 438.768 160.341C439.594 158.571 440.742 157.204 442.214 156.239C443.685 155.275 445.386 154.793 447.315 154.793C448.806 154.793 449.984 155.041 450.849 155.538C451.724 156.026 452.391 156.582 452.848 157.209C453.315 157.825 453.678 158.332 453.937 158.73H454.235V147.455H457.755V178H454.354V174.48H453.937C453.678 174.898 453.31 175.425 452.833 176.061C452.356 176.687 451.675 177.249 450.79 177.746C449.905 178.234 448.727 178.477 447.255 178.477ZM447.732 175.315C449.144 175.315 450.337 174.947 451.312 174.212C452.286 173.466 453.027 172.437 453.534 171.124C454.041 169.802 454.295 168.276 454.295 166.545C454.295 164.835 454.046 163.339 453.549 162.056C453.052 160.763 452.316 159.759 451.342 159.043C450.367 158.317 449.164 157.955 447.732 157.955C446.241 157.955 444.998 158.337 444.004 159.103C443.019 159.859 442.278 160.888 441.781 162.19C441.294 163.483 441.05 164.935 441.05 166.545C441.05 168.176 441.299 169.658 441.796 170.99C442.303 172.312 443.049 173.366 444.033 174.152C445.028 174.928 446.261 175.315 447.732 175.315ZM464.69 178V155.091H468.091V158.67H468.389C468.866 157.447 469.637 156.498 470.701 155.822C471.765 155.136 473.043 154.793 474.534 154.793C476.045 154.793 477.303 155.136 478.308 155.822C479.322 156.498 480.112 157.447 480.679 158.67H480.918C481.504 157.487 482.384 156.548 483.558 155.852C484.731 155.146 486.138 154.793 487.778 154.793C489.827 154.793 491.502 155.434 492.805 156.717C494.107 157.989 494.759 159.973 494.759 162.668V178H491.239V162.668C491.239 160.977 490.776 159.769 489.852 159.043C488.927 158.317 487.838 157.955 486.585 157.955C484.974 157.955 483.727 158.442 482.842 159.416C481.957 160.381 481.514 161.604 481.514 163.085V178H477.935V162.31C477.935 161.007 477.512 159.958 476.667 159.163C475.822 158.357 474.733 157.955 473.401 157.955C472.486 157.955 471.631 158.198 470.835 158.685C470.05 159.173 469.413 159.849 468.926 160.714C468.449 161.569 468.21 162.558 468.21 163.682V178H464.69ZM501.194 178V155.091H504.714V178H501.194ZM502.984 151.273C502.298 151.273 501.706 151.039 501.209 150.572C500.722 150.104 500.478 149.543 500.478 148.886C500.478 148.23 500.722 147.668 501.209 147.201C501.706 146.734 502.298 146.5 502.984 146.5C503.67 146.5 504.257 146.734 504.744 147.201C505.241 147.668 505.49 148.23 505.49 148.886C505.49 149.543 505.241 150.104 504.744 150.572C504.257 151.039 503.67 151.273 502.984 151.273ZM514.681 164.219V178H511.161V155.091H514.562V158.67H514.86C515.397 157.507 516.212 156.572 517.306 155.866C518.4 155.151 519.812 154.793 521.542 154.793C523.093 154.793 524.45 155.111 525.613 155.747C526.777 156.374 527.682 157.328 528.328 158.611C528.974 159.884 529.297 161.494 529.297 163.443V178H525.778V163.682C525.778 161.882 525.31 160.48 524.376 159.476C523.441 158.462 522.158 157.955 520.528 157.955C519.404 157.955 518.4 158.198 517.515 158.685C516.64 159.173 515.949 159.884 515.442 160.818C514.934 161.753 514.681 162.886 514.681 164.219ZM557.445 178H548.019V147.455H557.863C560.826 147.455 563.362 148.066 565.469 149.289C567.577 150.502 569.193 152.247 570.317 154.524C571.44 156.791 572.002 159.506 572.002 162.668C572.002 165.849 571.435 168.589 570.302 170.886C569.168 173.173 567.518 174.933 565.35 176.165C563.183 177.388 560.548 178 557.445 178ZM551.718 174.719H557.207C559.732 174.719 561.825 174.232 563.486 173.257C565.146 172.283 566.384 170.896 567.2 169.096C568.015 167.296 568.423 165.153 568.423 162.668C568.423 160.202 568.02 158.079 567.214 156.299C566.409 154.509 565.206 153.137 563.605 152.183C562.004 151.218 560.011 150.736 557.624 150.736H551.718V174.719ZM584.471 178.537C583.019 178.537 581.702 178.263 580.518 177.717C579.335 177.16 578.396 176.359 577.7 175.315C577.004 174.261 576.656 172.989 576.656 171.497C576.656 170.185 576.914 169.121 577.431 168.305C577.948 167.48 578.639 166.834 579.504 166.366C580.369 165.899 581.324 165.551 582.368 165.322C583.422 165.084 584.481 164.895 585.545 164.756C586.937 164.577 588.065 164.442 588.93 164.353C589.805 164.254 590.442 164.089 590.839 163.861C591.247 163.632 591.451 163.234 591.451 162.668V162.548C591.451 161.077 591.048 159.933 590.243 159.118C589.447 158.303 588.239 157.895 586.619 157.895C584.938 157.895 583.621 158.263 582.666 158.999C581.712 159.734 581.04 160.52 580.653 161.355L577.312 160.162C577.908 158.77 578.704 157.686 579.698 156.911C580.702 156.125 581.796 155.578 582.979 155.27C584.173 154.952 585.346 154.793 586.499 154.793C587.235 154.793 588.08 154.882 589.035 155.061C589.999 155.23 590.929 155.583 591.824 156.12C592.729 156.657 593.479 157.467 594.076 158.551C594.673 159.635 594.971 161.087 594.971 162.906V178H591.451V174.898H591.272C591.033 175.395 590.636 175.927 590.079 176.494C589.522 177.06 588.781 177.543 587.857 177.94C586.932 178.338 585.803 178.537 584.471 178.537ZM585.008 175.375C586.4 175.375 587.573 175.102 588.528 174.555C589.492 174.008 590.218 173.302 590.705 172.437C591.202 171.572 591.451 170.662 591.451 169.707V166.486C591.302 166.665 590.974 166.829 590.467 166.978C589.969 167.117 589.393 167.241 588.737 167.351C588.09 167.45 587.459 167.54 586.842 167.619C586.236 167.689 585.744 167.749 585.366 167.798C584.451 167.918 583.596 168.112 582.8 168.38C582.015 168.638 581.379 169.031 580.891 169.558C580.414 170.075 580.175 170.781 580.175 171.676C580.175 172.899 580.628 173.824 581.533 174.45C582.447 175.067 583.606 175.375 585.008 175.375ZM617.623 160.222L614.461 161.116C614.262 160.589 613.969 160.077 613.581 159.58C613.203 159.073 612.686 158.656 612.03 158.327C611.373 157.999 610.533 157.835 609.509 157.835C608.107 157.835 606.939 158.158 606.004 158.805C605.079 159.441 604.617 160.251 604.617 161.236C604.617 162.111 604.935 162.802 605.572 163.309C606.208 163.816 607.202 164.239 608.555 164.577L611.955 165.412C614.003 165.909 615.53 166.67 616.534 167.694C617.538 168.708 618.04 170.016 618.04 171.616C618.04 172.929 617.662 174.102 616.907 175.136C616.161 176.17 615.117 176.986 613.775 177.582C612.432 178.179 610.871 178.477 609.091 178.477C606.755 178.477 604.821 177.97 603.29 176.956C601.758 175.942 600.789 174.46 600.381 172.511L603.722 171.676C604.04 172.909 604.642 173.834 605.527 174.45C606.422 175.067 607.59 175.375 609.032 175.375C610.672 175.375 611.975 175.027 612.939 174.331C613.914 173.625 614.401 172.78 614.401 171.795C614.401 171 614.123 170.334 613.566 169.797C613.009 169.25 612.154 168.842 611.001 168.574L607.182 167.679C605.084 167.182 603.543 166.411 602.559 165.367C601.584 164.313 601.097 162.996 601.097 161.415C601.097 160.122 601.46 158.979 602.186 157.984C602.922 156.99 603.921 156.21 605.184 155.643C606.456 155.076 607.898 154.793 609.509 154.793C611.776 154.793 613.556 155.29 614.849 156.284C616.151 157.278 617.076 158.591 617.623 160.222ZM626.859 164.219V178H623.339V147.455H626.859V158.67H627.157C627.694 157.487 628.499 156.548 629.573 155.852C630.657 155.146 632.099 154.793 633.898 154.793C635.46 154.793 636.827 155.106 638 155.732C639.173 156.349 640.083 157.298 640.729 158.581C641.386 159.854 641.714 161.474 641.714 163.443V178H638.194V163.682C638.194 161.862 637.722 160.455 636.777 159.461C635.842 158.457 634.545 157.955 632.884 157.955C631.731 157.955 630.697 158.198 629.782 158.685C628.877 159.173 628.161 159.884 627.634 160.818C627.117 161.753 626.859 162.886 626.859 164.219ZM648.631 178V147.455H652.15V158.73H652.449C652.707 158.332 653.065 157.825 653.523 157.209C653.99 156.582 654.656 156.026 655.521 155.538C656.396 155.041 657.579 154.793 659.071 154.793C661 154.793 662.7 155.275 664.172 156.239C665.643 157.204 666.792 158.571 667.617 160.341C668.442 162.111 668.855 164.199 668.855 166.605C668.855 169.031 668.442 171.134 667.617 172.914C666.792 174.684 665.648 176.056 664.187 177.031C662.725 177.995 661.04 178.477 659.131 178.477C657.659 178.477 656.481 178.234 655.596 177.746C654.711 177.249 654.03 176.687 653.552 176.061C653.075 175.425 652.707 174.898 652.449 174.48H652.031V178H648.631ZM652.091 166.545C652.091 168.276 652.344 169.802 652.851 171.124C653.358 172.437 654.099 173.466 655.074 174.212C656.048 174.947 657.241 175.315 658.653 175.315C660.125 175.315 661.353 174.928 662.337 174.152C663.331 173.366 664.077 172.312 664.574 170.99C665.081 169.658 665.335 168.176 665.335 166.545C665.335 164.935 665.086 163.483 664.589 162.19C664.102 160.888 663.361 159.859 662.367 159.103C661.383 158.337 660.145 157.955 658.653 157.955C657.221 157.955 656.018 158.317 655.044 159.043C654.069 159.759 653.334 160.763 652.836 162.056C652.339 163.339 652.091 164.835 652.091 166.545ZM683.546 178.477C681.478 178.477 679.663 177.985 678.102 177.001C676.551 176.016 675.338 174.639 674.463 172.869C673.598 171.099 673.165 169.031 673.165 166.665C673.165 164.278 673.598 162.195 674.463 160.415C675.338 158.636 676.551 157.254 678.102 156.269C679.663 155.285 681.478 154.793 683.546 154.793C685.614 154.793 687.424 155.285 688.975 156.269C690.536 157.254 691.749 158.636 692.614 160.415C693.489 162.195 693.927 164.278 693.927 166.665C693.927 169.031 693.489 171.099 692.614 172.869C691.749 174.639 690.536 176.016 688.975 177.001C687.424 177.985 685.614 178.477 683.546 178.477ZM683.546 175.315C685.117 175.315 686.41 174.913 687.424 174.107C688.438 173.302 689.189 172.243 689.676 170.93C690.163 169.618 690.407 168.196 690.407 166.665C690.407 165.134 690.163 163.707 689.676 162.384C689.189 161.062 688.438 159.993 687.424 159.178C686.41 158.362 685.117 157.955 683.546 157.955C681.975 157.955 680.682 158.362 679.668 159.178C678.654 159.993 677.903 161.062 677.416 162.384C676.929 163.707 676.685 165.134 676.685 166.665C676.685 168.196 676.929 169.618 677.416 170.93C677.903 172.243 678.654 173.302 679.668 174.107C680.682 174.913 681.975 175.315 683.546 175.315ZM706.041 178.537C704.589 178.537 703.272 178.263 702.089 177.717C700.906 177.16 699.966 176.359 699.27 175.315C698.574 174.261 698.226 172.989 698.226 171.497C698.226 170.185 698.484 169.121 699.001 168.305C699.518 167.48 700.21 166.834 701.075 166.366C701.94 165.899 702.894 165.551 703.938 165.322C704.992 165.084 706.051 164.895 707.115 164.756C708.507 164.577 709.636 164.442 710.501 164.353C711.376 164.254 712.012 164.089 712.41 163.861C712.817 163.632 713.021 163.234 713.021 162.668V162.548C713.021 161.077 712.619 159.933 711.813 159.118C711.018 158.303 709.81 157.895 708.189 157.895C706.509 157.895 705.191 158.263 704.237 158.999C703.282 159.734 702.611 160.52 702.223 161.355L698.882 160.162C699.479 158.77 700.274 157.686 701.268 156.911C702.273 156.125 703.366 155.578 704.55 155.27C705.743 154.952 706.916 154.793 708.07 154.793C708.805 154.793 709.651 154.882 710.605 155.061C711.57 155.23 712.499 155.583 713.394 156.12C714.299 156.657 715.05 157.467 715.646 158.551C716.243 159.635 716.541 161.087 716.541 162.906V178H713.021V174.898H712.842C712.604 175.395 712.206 175.927 711.649 176.494C711.092 177.06 710.352 177.543 709.427 177.94C708.502 178.338 707.374 178.537 706.041 178.537ZM706.578 175.375C707.97 175.375 709.143 175.102 710.098 174.555C711.063 174.008 711.788 173.302 712.276 172.437C712.773 171.572 713.021 170.662 713.021 169.707V166.486C712.872 166.665 712.544 166.829 712.037 166.978C711.54 167.117 710.963 167.241 710.307 167.351C709.661 167.45 709.029 167.54 708.413 167.619C707.806 167.689 707.314 167.749 706.936 167.798C706.021 167.918 705.166 168.112 704.371 168.38C703.585 168.638 702.949 169.031 702.462 169.558C701.984 170.075 701.746 170.781 701.746 171.676C701.746 172.899 702.198 173.824 703.103 174.45C704.018 175.067 705.176 175.375 706.578 175.375ZM722.966 178V155.091H726.366V158.551H726.605C727.023 157.418 727.778 156.498 728.872 155.792C729.966 155.086 731.199 154.733 732.571 154.733C732.829 154.733 733.153 154.738 733.54 154.748C733.928 154.758 734.221 154.773 734.42 154.793V158.372C734.301 158.342 734.028 158.298 733.6 158.238C733.182 158.168 732.74 158.134 732.273 158.134C731.159 158.134 730.165 158.367 729.29 158.835C728.425 159.292 727.738 159.928 727.231 160.744C726.734 161.549 726.486 162.469 726.486 163.503V178H722.966ZM746.546 178.477C744.637 178.477 742.952 177.995 741.49 177.031C740.028 176.056 738.885 174.684 738.059 172.914C737.234 171.134 736.822 169.031 736.822 166.605C736.822 164.199 737.234 162.111 738.059 160.341C738.885 158.571 740.033 157.204 741.505 156.239C742.976 155.275 744.677 154.793 746.606 154.793C748.097 154.793 749.275 155.041 750.14 155.538C751.015 156.026 751.682 156.582 752.139 157.209C752.606 157.825 752.969 158.332 753.228 158.73H753.526V147.455H757.046V178H753.645V174.48H753.228C752.969 174.898 752.601 175.425 752.124 176.061C751.647 176.687 750.966 177.249 750.081 177.746C749.196 178.234 748.018 178.477 746.546 178.477ZM747.023 175.315C748.435 175.315 749.628 174.947 750.603 174.212C751.577 173.466 752.318 172.437 752.825 171.124C753.332 169.802 753.586 168.276 753.586 166.545C753.586 164.835 753.337 163.339 752.84 162.056C752.343 160.763 751.607 159.759 750.633 159.043C749.658 158.317 748.455 157.955 747.023 157.955C745.532 157.955 744.289 158.337 743.295 159.103C742.31 159.859 741.569 160.888 741.072 162.19C740.585 163.483 740.341 164.935 740.341 166.545C740.341 168.176 740.59 169.658 741.087 170.99C741.594 172.312 742.34 173.366 743.324 174.152C744.319 174.928 745.552 175.315 747.023 175.315Z" fill="black"/>
</g>
<defs>
<clipPath id="clip0_196_1317">
<rect width="761" height="178" fill="white"/>
</clipPath>
</defs>
</svg>
